<?xml version="1.0" standalone="no"?>
<!DOCTYPE svg PUBLIC "-//W3C//DTD SVG 20010904//EN"
 "http://www.w3.org/TR/2001/REC-SVG-20010904/DTD/svg10.dtd">
<svg version="1.0" xmlns="http://www.w3.org/2000/svg"
 width="512.000000pt" height="512.000000pt" viewBox="0 0 512.000000 512.000000"
 preserveAspectRatio="xMidYMid meet">
<metadata>
Created by potrace 1.11, written by Peter Selinger 2001-2013
</metadata>
<g transform="translate(0.000000,512.000000) scale(0.100000,-0.100000)"
fill="#000000" stroke="none">
<path d="M3480 4879 c0 -6 -7 -8 -16 -5 -12 4 -15 2 -10 -9 3 -9 0 -15 -10
-15 -9 0 -12 -5 -8 -12 6 -9 3 -9 -9 0 -14 12 -16 11 -12 -5 2 -11 -1 -26 -7
-34 -8 -11 -9 -10 -4 4 3 9 1 17 -4 17 -6 0 -10 -7 -10 -15 0 -14 -12 -19 -32
-16 -5 0 -7 -2 -7 -6 4 -27 -4 -42 -26 -47 -14 -4 -25 -13 -25 -21 0 -8 -6
-15 -14 -15 -8 0 -18 -4 -21 -10 -4 -6 1 -7 11 -3 15 6 15 4 -2 -14 -19 -20
-40 -21 -28 -1 5 7 2 8 -5 4 -7 -5 -10 -14 -7 -22 3 -9 -1 -14 -12 -14 -12 0
-13 -3 -5 -8 9 -6 6 -11 -8 -21 -16 -9 -19 -9 -14 0 5 8 4 10 -4 5 -6 -4 -10
-15 -9 -24 2 -11 -3 -16 -15 -14 -10 2 -16 -3 -15 -10 2 -7 -5 -12 -15 -12
-15 2 -16 -1 -5 -14 10 -12 10 -14 1 -8 -7 4 -13 3 -13 -3 0 -6 -7 -8 -15 -5
-8 4 -15 1 -15 -5 0 -6 5 -11 12 -11 7 0 -2 -11 -20 -23 -17 -13 -28 -28 -24
-32 4 -5 1 -5 -6 -1 -9 5 -15 1 -19 -13 -3 -12 -16 -24 -29 -27 -13 -3 -24
-12 -24 -20 0 -8 -6 -14 -14 -14 -8 0 -18 -5 -22 -12 -4 -6 -3 -8 4 -4 6 3 14
1 18 -5 4 -7 3 -9 -4 -5 -6 3 -15 -2 -21 -11 -6 -10 -11 -12 -11 -5 0 6 -5 12
-11 12 -6 0 -9 -6 -6 -12 5 -17 -41 -60 -56 -51 -7 4 -5 -2 3 -13 8 -10 10
-16 6 -12 -5 5 -16 -1 -24 -13 -8 -12 -20 -18 -29 -14 -13 5 -14 3 -3 -10 11
-13 11 -16 -1 -13 -8 2 -13 -3 -11 -11 3 -12 0 -12 -12 -2 -11 9 -16 9 -22 0
-4 -8 -3 -9 4 -5 18 11 14 -10 -5 -25 -15 -12 -16 -12 -8 1 8 13 7 13 -9 1
-13 -11 -14 -16 -4 -22 9 -6 7 -9 -8 -9 -15 0 -24 -8 -28 -25 -4 -14 -14 -25
-22 -25 -9 0 -14 -6 -11 -13 3 -8 -1 -14 -9 -15 -8 -1 -21 -3 -29 -4 -11 -1
-12 -4 -3 -15 9 -11 8 -13 -2 -11 -8 2 -14 -3 -15 -11 0 -8 -8 -17 -18 -20
-10 -4 -18 -11 -18 -16 0 -6 -7 -9 -16 -7 -8 2 -12 -1 -9 -7 4 -5 -3 -16 -14
-24 -11 -7 -17 -18 -12 -23 4 -4 0 -3 -9 4 -14 11 -17 10 -15 -5 0 -12 -5 -17
-17 -17 -14 2 -15 -1 -6 -13 10 -11 10 -13 -1 -11 -8 2 -15 -4 -15 -12 0 -8
-6 -14 -13 -13 -7 2 -12 -1 -12 -7 0 -5 -7 -7 -15 -4 -8 4 -15 2 -15 -4 0 -6
6 -13 13 -15 6 -3 2 -6 -10 -6 -19 -1 -40 -32 -35 -53 1 -4 -6 -4 -15 -1 -13
5 -15 2 -10 -11 4 -9 3 -15 -2 -12 -4 3 -19 -6 -32 -20 -12 -13 -29 -22 -36
-20 -7 3 -13 1 -13 -4 0 -6 6 -10 13 -10 6 0 4 -5 -6 -11 -9 -5 -23 -7 -30 -3
-7 5 -7 1 2 -10 12 -15 12 -17 0 -14 -8 2 -13 -2 -12 -9 2 -6 -6 -15 -17 -18
-12 -4 -17 -11 -13 -18 4 -7 -1 -6 -11 2 -9 8 -16 10 -15 5 4 -24 -2 -36 -17
-30 -14 6 -15 4 -4 -9 11 -13 11 -16 0 -13 -8 2 -14 -4 -15 -12 -1 -8 -6 -14
-13 -12 -11 2 -16 -11 -13 -31 0 -4 -2 -6 -6 -5 -16 4 -53 -14 -48 -23 4 -5 0
-9 -8 -9 -8 0 -22 -10 -33 -22 -19 -23 -19 -23 2 -5 11 9 24 17 29 17 4 0 -5
-10 -21 -22 -34 -26 -44 -39 -38 -49 2 -4 -4 -6 -13 -5 -10 0 -18 -4 -18 -11
0 -6 -4 -15 -9 -20 -5 -5 -6 -3 -2 5 4 6 2 12 -3 12 -6 0 -11 -5 -11 -11 0 -6
-9 -22 -20 -36 -11 -14 -20 -22 -20 -18 0 5 8 18 17 29 18 21 18 21 -4 2 -13
-11 -23 -25 -23 -33 0 -8 -5 -11 -11 -7 -8 4 -9 -1 -4 -17 4 -17 3 -20 -3 -10
-8 10 -14 11 -28 1 -18 -11 -18 -11 0 -5 19 6 19 5 1 -15 -20 -22 -30 -27 -19
-8 5 7 3 8 -5 4 -7 -5 -10 -14 -7 -22 3 -7 0 -16 -6 -20 -7 -4 -8 -3 -4 4 4 7
4 12 1 12 -10 0 -35 -28 -35 -39 0 -6 -7 -11 -16 -11 -8 0 -12 -4 -9 -10 3 -5
0 -10 -8 -10 -7 0 -24 -12 -38 -27 l-24 -28 26 23 c14 12 28 22 31 22 9 0 -66
-74 -74 -75 -4 0 -15 -10 -23 -22 -9 -13 -22 -23 -29 -23 -7 0 -17 -10 -22
-22 -6 -13 -9 -17 -7 -9 3 11 1 11 -11 2 -8 -7 -13 -18 -10 -26 3 -7 0 -16 -7
-21 -8 -4 -10 -3 -5 4 4 7 2 12 -3 12 -6 0 -11 -7 -11 -15 0 -8 -9 -19 -20
-25 -11 -6 -19 -16 -17 -23 1 -6 -9 -13 -22 -15 -14 -2 -20 -7 -13 -11 7 -4 4
-11 -9 -20 -16 -9 -19 -9 -14 0 6 8 4 10 -4 5 -7 -5 -10 -15 -7 -23 3 -8 2
-12 -3 -9 -4 3 -13 -5 -19 -18 -6 -14 -20 -27 -32 -31 -12 -4 -17 -11 -13 -18
4 -8 1 -7 -9 1 -13 10 -18 10 -24 1 -5 -8 -3 -9 6 -4 8 5 11 3 8 -6 -3 -8 -11
-13 -17 -11 -6 1 -11 -5 -11 -13 0 -8 -5 -15 -11 -15 -5 0 -7 -5 -3 -12 4 -6
3 -8 -3 -5 -6 4 -19 -1 -29 -9 -10 -9 -12 -13 -4 -9 12 5 12 4 -1 -7 -8 -7
-21 -22 -28 -33 -10 -16 -11 -17 -7 -2 3 11 2 15 -4 12 -6 -3 -10 -13 -10 -21
0 -8 -7 -14 -16 -14 -8 0 -12 -4 -9 -10 3 -5 1 -10 -5 -10 -6 0 -8 -4 -5 -10
3 -5 0 -7 -8 -4 -8 3 -20 -3 -28 -13 -12 -16 -12 -17 1 -8 9 6 7 2 -5 -9 -11
-10 -19 -23 -17 -29 2 -6 -4 -4 -13 3 -9 7 -15 9 -14 4 4 -24 -2 -36 -17 -30
-15 6 -15 4 -3 -11 9 -11 10 -14 2 -9 -7 4 -13 3 -13 -3 0 -6 -7 -8 -15 -5 -8
4 -15 2 -15 -4 0 -6 6 -13 13 -15 6 -3 0 -6 -15 -6 -16 -1 -28 -5 -28 -11 0
-5 8 -7 18 -4 9 3 4 -3 -13 -12 -16 -10 -34 -19 -40 -19 -5 -1 -9 -6 -8 -13 2
-7 -2 -12 -7 -12 -7 0 -7 -6 -1 -19 6 -10 8 -21 4 -24 -3 -3 7 -4 22 -1 15 3
32 0 39 -5 7 -6 17 -6 26 -1 8 5 22 4 33 -2 12 -6 17 -6 13 0 -3 5 6 10 19 10
14 0 25 -6 25 -12 0 -6 5 -4 10 4 8 12 11 13 19 1 7 -11 9 -11 13 0 4 12 8 12
20 1 11 -8 18 -9 22 -3 4 6 14 7 23 4 11 -5 14 -3 8 6 -6 10 -3 11 11 3 11 -6
22 -10 27 -11 4 -1 8 -1 10 -2 1 0 12 -2 24 -3 19 -2 21 0 10 12 -10 13 -9 14
8 5 11 -6 35 -9 53 -7 24 3 31 0 26 -9 -6 -9 -4 -9 7 -1 16 13 68 13 88 0 10
-6 12 -6 7 2 -8 13 6 17 18 5 15 -15 38 -12 31 5 -5 13 -1 12 16 -4 12 -10 20
-14 16 -8 -4 7 6 11 28 11 19 0 35 -5 35 -11 0 -7 3 -8 8 -1 9 14 45 14 54 0
5 -7 8 -7 8 0 0 15 100 16 100 1 0 -7 3 -7 8 -1 10 15 94 16 85 2 -4 -7 -1 -7
9 1 13 10 17 10 21 0 4 -10 6 -10 6 0 1 6 6 12 12 12 5 0 7 -5 3 -11 -3 -6 6
-3 22 7 15 11 25 14 21 7 -4 -6 -3 -14 3 -18 5 -3 10 -2 10 3 0 5 7 9 15 9 8
0 15 -5 15 -11 0 -7 3 -7 8 -1 10 15 84 16 75 1 -4 -6 1 -5 10 3 14 11 17 11
17 0 0 -9 3 -10 8 -4 8 12 61 13 79 2 6 -4 15 -3 18 3 5 8 11 8 20 0 9 -8 15
-8 20 0 10 17 28 11 21 -7 -6 -16 -5 -16 8 0 9 12 16 14 21 7 3 -5 12 -7 18
-3 7 4 29 8 50 9 33 1 36 0 25 -15 -9 -12 -7 -11 9 2 16 14 22 15 26 5 4 -10
6 -10 6 1 1 11 5 10 16 -5 15 -19 15 -19 9 1 -5 16 -4 17 4 5 13 -17 -4 -44
-21 -33 -6 3 -7 1 -3 -5 4 -7 2 -12 -5 -12 -9 0 -9 -3 0 -14 9 -11 8 -14 -6
-12 -12 1 -19 -9 -24 -29 -4 -16 -7 -24 -8 -17 0 7 -5 11 -11 7 -5 -3 -7 -12
-4 -19 3 -8 -5 -21 -18 -30 -15 -11 -18 -16 -8 -16 8 -1 3 -8 -12 -16 -16 -8
-28 -20 -28 -27 0 -8 4 -6 10 3 5 8 10 11 10 5 -1 -14 -23 -42 -35 -44 -5 -1
-10 -10 -9 -20 0 -11 -5 -17 -12 -14 -6 2 -15 -1 -20 -8 -5 -8 -3 -10 7 -5 8
4 5 0 -5 -8 -15 -12 -16 -16 -5 -17 8 0 4 -5 -9 -11 -13 -7 -21 -17 -18 -25 3
-7 1 -13 -5 -13 -6 0 -7 -4 -4 -10 3 -6 -1 -7 -10 -4 -11 5 -16 2 -15 -7 4
-26 0 -39 -11 -39 -8 0 -7 6 2 18 13 15 12 16 -4 3 -10 -8 -16 -20 -13 -27 3
-8 -2 -20 -10 -29 -8 -8 -17 -24 -19 -36 -5 -25 -15 -38 -15 -20 0 7 -5 9 -11
6 -6 -4 -8 -13 -5 -21 3 -7 -7 -23 -22 -34 -15 -12 -21 -19 -15 -15 8 4 11 1
7 -9 -3 -8 -12 -12 -20 -9 -8 3 -14 2 -13 -3 4 -21 -2 -35 -11 -29 -6 4 -10
-5 -10 -20 0 -20 -4 -26 -16 -21 -8 3 -13 2 -10 -3 9 -13 -35 -91 -58 -103
-15 -8 -16 -12 -5 -20 11 -7 9 -9 -7 -5 -17 3 -21 0 -20 -17 1 -14 -5 -21 -17
-20 -14 2 -15 -1 -6 -12 9 -11 8 -14 -7 -14 -16 0 -17 -2 -4 -10 12 -7 12 -10
1 -10 -8 0 -11 -6 -7 -16 6 -15 4 -15 -11 -3 -15 12 -16 12 -10 -3 4 -13 1
-18 -11 -18 -13 0 -14 -2 -3 -9 17 -11 -4 -25 -21 -15 -8 5 -7 0 2 -11 14 -17
13 -18 -3 -12 -11 4 -16 3 -12 -3 3 -6 0 -10 -7 -11 -7 0 -4 -4 7 -9 18 -8 19
-9 1 -9 -12 -1 -16 -6 -12 -17 3 -8 2 -12 -4 -9 -6 3 -10 1 -10 -5 0 -6 -4 -8
-10 -5 -5 3 -10 -1 -10 -10 0 -10 -5 -13 -12 -9 -9 5 -8 2 1 -9 12 -15 12 -17
-3 -11 -12 5 -15 2 -9 -12 5 -13 3 -15 -7 -9 -10 6 -12 4 -7 -8 4 -12 1 -17
-11 -17 -15 0 -15 -2 -2 -11 12 -9 11 -10 -5 -6 -21 4 -24 -2 -25 -58 -1 -18
-2 -19 -11 -2 -6 9 -15 17 -22 17 -8 0 -8 -3 2 -9 11 -7 11 -12 0 -32 -7 -13
-12 -27 -11 -31 1 -4 -4 -5 -12 -2 -8 3 -17 0 -22 -7 -4 -7 -3 -10 2 -6 5 3
10 -3 10 -13 0 -10 -3 -17 -7 -15 -12 8 -48 -26 -43 -40 3 -7 -4 -18 -16 -25
-11 -6 -18 -15 -15 -21 4 -5 2 -9 -4 -9 -6 0 -7 -7 -4 -17 5 -12 3 -14 -7 -8
-10 6 -12 4 -7 -9 4 -10 3 -15 -3 -11 -6 3 -10 1 -10 -5 0 -6 -5 -8 -11 -4 -7
4 -7 -1 1 -16 11 -20 10 -21 -10 -10 -16 8 -20 9 -16 1 4 -6 0 -18 -9 -27 -9
-9 -14 -23 -11 -31 4 -9 2 -11 -6 -7 -8 5 -9 2 -4 -11 6 -16 4 -16 -11 -4 -11
9 -14 10 -9 2 5 -9 1 -13 -11 -14 -16 0 -17 -1 -1 -7 13 -5 15 -11 8 -22 -5
-8 -10 -11 -10 -6 0 5 -9 1 -19 -8 -11 -10 -17 -24 -14 -32 3 -8 0 -14 -6 -14
-6 0 -11 -9 -11 -21 0 -14 -5 -19 -14 -16 -9 4 -13 1 -10 -7 3 -7 -7 -25 -21
-40 -14 -15 -23 -32 -19 -37 3 -6 -4 -13 -15 -16 -16 -4 -19 -9 -11 -18 8 -10
8 -15 -1 -21 -8 -4 -9 -3 -5 4 4 7 2 12 -3 12 -6 0 -11 -11 -11 -24 0 -14 -5
-28 -12 -32 -7 -4 -8 -3 -4 4 4 7 2 12 -3 12 -6 0 -11 -8 -11 -17 -1 -18 -49
-115 -50 -100 0 5 5 18 11 30 10 21 10 21 -5 3 -9 -11 -16 -28 -16 -38 0 -10
-5 -18 -11 -18 -5 0 -7 6 -3 12 4 7 3 9 -1 5 -16 -14 -14 -37 3 -38 14 0 13
-2 -3 -9 -11 -5 -16 -9 -11 -9 5 -1 4 -7 -2 -14 -8 -10 -6 -13 9 -13 11 0 18
5 15 11 -5 15 32 38 46 29 7 -4 8 -3 4 4 -4 7 -2 12 3 12 6 0 10 6 8 12 -1 7
8 14 20 16 14 2 20 8 16 18 -4 10 0 12 13 7 13 -5 16 -3 11 9 -4 11 1 18 15
21 11 3 17 10 14 15 -3 5 9 19 27 32 l32 23 -22 -25 c-13 -13 -23 -28 -23 -32
0 -4 12 6 26 23 14 17 30 28 36 25 6 -4 5 2 -1 15 -10 18 -9 20 6 14 13 -5 15
-3 10 12 -6 15 -5 16 8 5 9 -7 15 -9 14 -4 -1 5 1 17 6 27 6 15 10 16 16 5 7
-10 9 -10 9 0 0 6 7 12 15 12 9 0 12 6 8 17 -5 12 -3 14 7 8 10 -6 12 -4 7 7
-4 12 0 15 16 12 12 -2 16 -2 9 2 -17 8 -5 24 13 17 10 -3 15 1 15 11 0 9 7
19 15 22 8 4 15 13 15 21 0 13 3 13 18 2 9 -7 14 -9 10 -5 -4 5 2 17 13 27 12
10 18 23 13 30 -5 9 -1 11 14 7 20 -6 27 2 23 26 -1 5 5 6 14 2 9 -3 14 -2 11
3 -7 11 18 33 27 24 4 -3 7 -1 7 6 0 8 7 11 18 7 14 -5 14 -4 -2 9 -20 15 -20
15 0 16 10 1 22 1 26 0 4 0 4 7 1 16 -4 11 -3 14 5 9 8 -4 12 0 12 11 0 14 2
15 9 5 6 -10 10 -9 14 7 3 12 10 21 17 21 6 0 8 -5 4 -12 -4 -7 -3 -8 4 -4 6
4 9 13 5 22 -3 8 -1 14 4 12 14 -5 63 53 56 66 -4 6 1 5 10 -3 14 -11 17 -11
18 0 1 8 1 18 0 23 -1 5 5 6 14 2 9 -3 14 -2 11 3 -3 5 1 14 9 21 13 11 14 10
9 -6 -6 -18 -5 -17 9 1 9 11 17 26 17 33 0 7 3 11 8 9 10 -6 42 30 34 39 -4 5
2 2 12 -6 11 -8 17 -10 13 -4 -4 7 1 20 11 31 9 10 13 12 7 3 -6 -10 -2 -9 12
4 13 10 20 22 18 27 -3 4 -1 10 5 14 5 3 10 1 10 -6 0 -18 11 -4 15 18 1 10 8
17 14 16 6 -2 11 2 11 8 0 5 5 7 10 4 6 -3 10 1 10 10 0 9 5 13 10 10 6 -3 10
-1 10 5 0 7 7 9 16 6 14 -5 15 -4 4 9 -10 12 -10 15 4 15 18 0 22 15 6 23 -6
3 -5 4 2 3 21 -5 48 13 48 32 0 14 2 14 9 3 7 -11 10 -9 16 9 4 12 10 18 14
13 3 -5 20 6 36 26 17 19 24 32 18 27 -20 -11 -15 -2 9 18 17 15 20 15 15 3
-4 -11 -2 -14 8 -11 8 3 11 12 9 19 -6 16 35 47 50 38 6 -4 6 -1 -1 8 -12 15
-8 17 44 21 7 1 10 5 7 10 -3 5 -9 6 -14 3 -5 -3 -12 0 -16 7 -4 7 -3 10 1 5
5 -4 17 1 28 10 12 11 17 12 12 4 -6 -10 -4 -12 4 -7 7 5 10 14 8 20 -3 7 5
18 16 26 21 12 21 12 7 -5 -14 -18 -13 -18 11 0 26 19 30 43 6 29 -7 -4 -8 -3
-4 2 9 9 13 10 42 13 8 0 15 8 15 16 0 13 12 19 32 16 4 0 4 7 1 16 -4 11 -3
14 5 9 7 -4 12 -1 12 7 0 8 10 17 21 20 14 4 20 11 16 21 -3 8 -1 18 5 22 6 4
8 3 5 -3 -4 -6 0 -14 9 -17 8 -3 12 -2 9 4 -7 11 10 47 19 43 3 -2 14 -3 24
-2 10 0 12 3 5 6 -7 2 -13 9 -13 14 0 6 4 8 9 4 5 -3 12 -1 16 5 4 6 11 8 16
5 5 -3 6 2 2 11 -4 12 -3 15 5 10 8 -4 12 0 13 11 0 13 2 14 6 4 4 -9 10 -3
19 18 7 17 19 31 26 30 10 0 10 -2 1 -6 -7 -2 -13 -9 -13 -15 0 -6 9 -3 20 7
21 19 28 41 8 29 -7 -4 -8 -3 -4 4 4 6 13 9 21 5 10 -3 15 1 15 12 0 9 5 13
10 10 6 -3 10 1 10 10 0 9 5 13 10 10 6 -3 10 -1 10 5 0 7 6 10 14 7 10 -4 13
0 11 15 -3 16 0 19 15 15 11 -3 18 -1 14 4 -3 5 0 9 6 9 6 0 8 5 5 10 -6 9 8
15 29 11 5 -1 6 5 3 14 -4 10 0 15 12 15 17 0 46 25 53 45 2 6 7 9 12 7 5 -2
6 4 2 13 -5 13 -2 14 17 4 20 -11 21 -11 8 4 -14 18 -7 22 29 17 11 -1 9 3 -5
14 -11 9 -15 16 -10 15 6 -1 18 -1 29 0 15 1 16 4 6 16 -11 13 -10 14 5 9 13
-5 16 -4 11 4 -5 8 -2 10 8 6 11 -4 19 2 26 20 5 14 14 26 20 26 6 0 9 4 6 9
-3 4 5 7 19 6 17 -2 22 1 18 11 -3 8 1 14 10 14 9 0 19 9 22 21 4 12 13 18 20
15 10 -3 12 0 8 11 -4 11 -2 14 5 9 7 -4 12 -1 12 9 0 11 5 15 16 11 10 -4 13
-2 8 6 -5 8 -2 9 10 5 9 -4 15 -3 12 1 -8 13 29 53 51 55 12 0 19 6 16 13 -2
7 4 15 15 18 11 4 23 14 27 23 5 14 2 14 -17 -3 l-23 -19 19 22 c10 12 21 22
25 21 19 -2 29 4 34 22 3 12 14 20 26 20 12 0 20 6 19 13 -2 6 3 11 10 9 6 -1
12 7 12 19 0 14 5 19 14 16 20 -8 28 4 13 21 -10 13 -8 14 11 8 19 -6 25 -4
29 14 5 17 8 19 15 8 7 -9 8 -7 5 9 -3 13 0 26 5 30 7 3 8 1 4 -5 -4 -7 -3
-12 2 -12 9 0 26 29 24 40 0 3 9 7 20 7 12 1 26 7 32 14 8 9 7 10 -4 5 -8 -4
-7 -1 4 8 10 8 15 19 11 25 -3 7 0 8 9 5 9 -3 13 -11 9 -17 -3 -6 -1 -7 5 -3
7 4 12 15 12 25 0 17 29 49 59 66 9 5 12 4 7 -3 -4 -7 -2 -12 3 -12 6 0 11 9
11 20 0 11 6 19 13 18 6 -2 11 3 9 11 -2 9 3 11 14 7 12 -5 15 -2 10 10 -5 13
-4 15 7 5 12 -9 14 -6 11 15 -2 20 0 24 9 15 17 -17 26 -13 20 12 -3 13 -1 17
4 11 6 -9 11 -8 20 1 10 11 10 15 0 18 -7 3 -2 6 11 6 15 1 21 5 16 13 -5 7
-2 9 9 5 12 -4 14 -2 10 10 -5 12 -3 14 8 8 12 -8 12 -6 0 9 -9 11 -25 16 -43
14 -17 -2 -33 3 -38 12 -8 13 -10 13 -10 -1 0 -12 -7 -15 -27 -11 -16 3 -31
10 -35 16 -5 7 -8 3 -8 -9 0 -17 -2 -17 -10 -5 -7 11 -10 11 -10 2 0 -9 -5
-10 -18 -3 -10 5 -24 6 -31 1 -8 -4 -27 -4 -42 0 -19 6 -29 5 -29 -2 0 -6 -6
-6 -15 2 -8 7 -15 8 -15 4 0 -10 -112 -9 -136 0 -8 3 -14 2 -14 -2 0 -8 -74
-6 -97 2 -6 3 -14 0 -17 -7 -2 -7 -5 -8 -5 -1 -1 6 -14 9 -31 6 -21 -3 -30 0
-30 9 0 12 -2 12 -9 1 -6 -10 -33 -13 -105 -10 -59 2 -96 -1 -96 -7 0 -5 -5
-3 -10 5 -7 11 -10 11 -10 2 0 -10 -5 -10 -20 -2 -15 8 -20 8 -20 -2 0 -10 -2
-10 -9 1 -7 10 -10 10 -13 1 -3 -9 -9 -8 -21 4 -12 13 -17 14 -17 4 0 -16
-123 -16 -143 1 -10 7 -17 7 -24 0 -6 -6 -44 -9 -92 -7 -49 2 -81 -1 -81 -7 0
-5 -5 -3 -10 5 -7 11 -10 11 -10 2 0 -10 -5 -10 -20 -2 -11 6 -20 7 -20 3 0
-14 -83 -5 -91 9 -7 10 -9 9 -9 -4 0 -14 -5 -15 -30 -8 -18 5 -30 5 -30 0 0
-6 -10 -6 -22 -1 -13 4 -28 6 -34 4 -18 -6 -3 57 16 67 12 6 16 17 13 30 -3
12 -2 20 3 19 21 -4 25 2 13 18 -10 11 -10 14 -1 9 8 -5 12 -1 12 13 0 11 5
23 10 26 6 4 8 11 4 16 -3 5 0 8 8 7 7 -2 12 4 10 14 -1 9 3 20 9 24 7 4 9 3
5 -4 -3 -6 -3 -13 2 -16 7 -4 12 17 15 62 0 6 7 12 16 12 14 0 14 2 1 10 -10
7 -11 10 -2 11 27 3 31 4 39 13 4 5 3 6 -4 2 -6 -3 -14 -2 -17 3 -3 5 1 12 10
15 10 4 14 12 10 22 -5 12 -2 15 11 10 10 -4 14 -4 11 0 -4 4 -3 16 3 27 9 15
8 18 -3 11 -11 -6 -11 -5 1 9 7 9 10 17 5 18 -5 0 1 4 14 9 16 7 22 18 22 40
0 16 4 30 10 30 5 0 7 -8 4 -17 -5 -16 -4 -16 6 0 9 14 9 21 0 32 -10 12 -8
13 9 10 19 -3 20 -1 10 17 -7 13 -7 18 -1 14 6 -3 13 -2 16 3 4 5 2 12 -4 16
-6 4 -8 11 -4 16 4 6 11 6 19 -1 11 -10 13 -8 10 10 -2 12 4 29 17 42 11 11
21 32 21 45 0 19 4 24 19 20 15 -4 17 -3 8 8 -8 10 -5 18 15 33 17 13 21 22
13 25 -9 3 -7 9 6 19 21 17 32 52 13 42 -7 -3 -1 4 13 16 14 12 20 19 14 16
-6 -3 -11 1 -11 8 0 8 6 12 13 9 6 -2 15 1 20 8 5 8 3 10 -6 4 -8 -5 -11 -3
-8 6 3 8 11 13 18 11 10 -2 10 1 -1 14 -8 10 -9 15 -3 11 14 -8 27 18 27 50 0
15 4 20 16 16 9 -4 13 -3 9 2 -9 9 11 37 21 31 4 -3 8 12 9 32 2 20 8 41 14
47 8 7 9 6 4 -2 -5 -8 -2 -11 7 -8 9 4 12 16 9 37 -3 22 -1 29 7 24 6 -4 8
-13 5 -19 -4 -7 -3 -8 1 -4 5 4 10 23 10 42 1 20 6 39 10 43 5 4 5 -2 1 -12
-5 -16 -4 -17 9 -6 8 7 12 16 9 21 -3 5 5 18 17 28 17 14 19 20 9 26 -8 5 -11
4 -6 -3 3 -6 2 -13 -3 -16 -5 -4 -8 2 -6 11 1 10 8 17 15 15 7 -2 10 3 7 10
-5 15 27 61 36 52 3 -3 3 3 0 15 -4 16 -1 21 13 22 11 0 14 3 7 5 -8 4 -7 11
5 23 9 10 21 16 26 13 5 -3 6 0 2 7 -6 9 -12 9 -24 -1 -12 -8 -11 -5 3 12 11
14 25 28 30 32 6 5 4 8 -5 8 -13 0 -13 2 0 9 8 6 17 8 20 6 3 -2 5 12 5 30 -1
19 1 32 5 30 4 -2 16 3 26 11 10 9 13 13 7 9 -9 -4 -12 2 -11 19 1 13 6 22 10
20 5 -3 5 -11 2 -17 -4 -7 -3 -8 1 -4 10 9 15 30 17 66 l1 24 12 -22 c10 -20
13 -21 18 -7 4 10 3 15 -3 11 -16 -10 -12 7 8 28 9 11 11 17 5 13 -7 -4 -13
-2 -13 3 0 6 5 11 11 11 6 0 8 7 5 16 -5 13 -4 14 7 5 12 -9 14 -7 12 13 -2
14 -7 31 -11 38 -6 10 -3 9 9 -1 10 -8 19 -12 21 -10 2 2 -7 12 -20 22 -14 11
-24 13 -24 6z m-340 -763 c0 -3 -4 -8 -10 -11 -5 -3 -10 -1 -10 4 0 6 5 11 10
11 6 0 10 -2 10 -4z m-120 -240 c0 -3 -4 -8 -10 -11 -5 -3 -10 -1 -10 4 0 6 5
11 10 11 6 0 10 -2 10 -4z m150 -1820 c0 -3 -4 -8 -10 -11 -5 -3 -10 -1 -10 4
0 6 5 11 10 11 6 0 10 -2 10 -4z m-775 -706 c-3 -5 -12 -10 -18 -10 -7 0 -6 4
3 10 19 12 23 12 15 0z m-745 -370 c0 -5 -5 -10 -11 -10 -5 0 -7 5 -4 10 3 6
8 10 11 10 2 0 4 -4 4 -10z"/>
<path d="M3275 4380 c-3 -5 -1 -10 4 -10 6 0 11 5 11 10 0 6 -2 10 -4 10 -3 0
-8 -4 -11 -10z"/>
<path d="M2590 4020 c0 -5 5 -10 11 -10 5 0 7 5 4 10 -3 6 -8 10 -11 10 -2 0
-4 -4 -4 -10z"/>
<path d="M2326 3753 c-6 -14 -5 -15 5 -6 7 7 10 15 7 18 -3 3 -9 -2 -12 -12z"/>
<path d="M2665 3210 c-3 -5 -1 -10 4 -10 6 0 11 5 11 10 0 6 -2 10 -4 10 -3 0
-8 -4 -11 -10z"/>
<path d="M1655 3080 c3 -5 8 -10 11 -10 2 0 4 5 4 10 0 6 -5 10 -11 10 -5 0
-7 -4 -4 -10z"/>
<path d="M1470 2900 c0 -5 5 -10 11 -10 5 0 7 5 4 10 -3 6 -8 10 -11 10 -2 0
-4 -4 -4 -10z"/>
<path d="M3977 2802 c-24 -27 -21 -36 4 -11 11 11 19 23 16 25 -2 2 -11 -4
-20 -14z"/>
<path d="M1365 2790 c-3 -6 1 -7 9 -4 18 7 21 14 7 14 -6 0 -13 -4 -16 -10z"/>
<path d="M3859 2683 c-13 -16 -12 -17 4 -4 16 13 21 21 13 21 -2 0 -10 -8 -17
-17z"/>
<path d="M3348 2213 c7 -3 16 -2 19 1 4 3 -2 6 -13 5 -11 0 -14 -3 -6 -6z"/>
<path d="M2150 1759 c0 -5 5 -7 10 -4 6 3 10 8 10 11 0 2 -4 4 -10 4 -5 0 -10
-5 -10 -11z"/>
<path d="M2476 1422 c-3 -5 1 -9 9 -9 8 0 12 4 9 9 -3 4 -7 8 -9 8 -2 0 -6 -4
-9 -8z"/>
<path d="M1225 270 c-3 -5 -1 -10 4 -10 6 0 11 5 11 10 0 6 -2 10 -4 10 -3 0
-8 -4 -11 -10z"/>
</g>
</svg>
