<?xml version="1.0" standalone="no"?>
<!DOCTYPE svg PUBLIC "-//W3C//DTD SVG 20010904//EN"
 "http://www.w3.org/TR/2001/REC-SVG-20010904/DTD/svg10.dtd">
<svg version="1.0" xmlns="http://www.w3.org/2000/svg"
 width="600.000000pt" height="600.000000pt" viewBox="0 0 600.000000 600.000000"
 preserveAspectRatio="xMidYMid meet">
<metadata>
Created by potrace 1.14, written by Peter Selinger 2001-2017
</metadata>
<g transform="translate(0.000000,600.000000) scale(0.100000,-0.100000)"
fill="#000000" stroke="none">
<path d="M2659 4459 c-844 -848 -1583 -1590 -1643 -1650 -60 -60 -107 -112
-103 -115 5 -5 480 -9 1834 -17 145 -1 263 -5 263 -8 0 -3 -13 -25 -30 -47
-16 -23 -30 -44 -30 -47 0 -3 -5 -11 -11 -18 -5 -7 -59 -86 -119 -177 -60 -91
-113 -170 -117 -175 -11 -14 -105 -156 -118 -177 -5 -10 -64 -97 -129 -195
-66 -98 -118 -180 -117 -182 2 -2 -1 -7 -7 -10 -5 -3 -177 -260 -383 -571
-206 -311 -382 -576 -392 -590 -9 -14 -69 -104 -133 -200 -63 -96 -121 -182
-128 -190 -7 -8 -23 -33 -36 -55 l-23 -40 33 30 c31 27 67 60 181 166 20 19
78 72 129 119 51 47 111 103 135 125 37 35 201 188 289 269 17 15 82 76 145
135 63 58 122 113 131 121 9 8 48 44 86 80 38 36 121 112 184 170 62 58 145
134 184 170 38 36 77 72 86 80 23 21 115 106 264 245 71 66 144 134 161 150
18 17 79 73 136 125 56 52 117 109 134 125 18 17 76 71 130 120 54 50 114 106
135 125 20 19 86 80 145 135 60 55 124 115 143 132 148 138 335 311 387 359
17 15 82 75 145 134 63 60 129 121 146 136 38 36 227 211 302 281 l56 52 -239
1 c-132 1 -289 3 -350 5 -60 1 -378 6 -705 10 -327 4 -636 8 -687 9 -50 1 -94
4 -97 7 -7 6 43 119 62 142 6 6 11 17 12 22 0 6 57 123 126 260 68 138 124
254 123 259 0 5 3 12 8 15 7 5 363 714 435 866 10 22 23 47 28 55 5 8 91 182
191 385 100 204 184 373 186 378 2 4 2 7 0 7 -2 0 -694 -694 -1538 -1541z"/>
</g>
</svg>
